<?xml version="1.0" encoding="utf-8"?>
<svg version="1.0" id="camera" xmlns="http://www.w3.org/2000/svg" x="0px" y="0px"
	 width="40.034px" height="29.999px" viewBox="124.818 113.782 40.034 29.999"
	 enable-background="new 124.818 113.782 40.034 29.999" xml:space="preserve">
<g opacity="0.7">
	<path fill="#FFFFFF" d="M124.818,123.811c0-1.107,0.397-2.056,1.195-2.836c0.797-0.797,1.741-1.195,2.836-1.195h7.969l2.017-3.982
		l0.562-1.031c0.125-0.219,0.318-0.438,0.586-0.656c0.268-0.217,0.557-0.327,0.867-0.327h7.969c0.232,0,0.449,0.047,0.646,0.141
		c0.195,0.095,0.379,0.25,0.551,0.47c0.172,0.219,0.309,0.422,0.41,0.608c0.101,0.188,0.238,0.453,0.41,0.797l2.016,3.984h7.969
		c1.094,0,2.039,0.397,2.836,1.194c0.797,0.781,1.195,1.728,1.195,2.836v15.984c0,1.107-0.398,2.047-1.195,2.812
		c-0.781,0.781-1.727,1.172-2.836,1.172H128.85c-1.094,0-2.047-0.391-2.859-1.172c-0.781-0.78-1.172-1.719-1.172-2.812
		L124.818,123.811L124.818,123.811z M135.811,130.818c0,2.483,0.875,4.602,2.625,6.352s3.883,2.625,6.398,2.625
		c2.482,0,4.602-0.875,6.352-2.625s2.625-3.867,2.625-6.352c0-2.5-0.875-4.625-2.625-6.375c-1.734-1.767-3.852-2.648-6.352-2.648
		s-4.633,0.883-6.398,2.648C136.686,126.193,135.811,128.318,135.811,130.818z M139.842,130.818c0-1.375,0.484-2.562,1.453-3.562
		c0.953-0.982,2.133-1.477,3.539-1.477c1.391,0,2.568,0.492,3.539,1.477c0.969,1,1.453,2.188,1.453,3.562
		c0,1.358-0.484,2.539-1.453,3.539c-0.971,0.969-2.148,1.453-3.539,1.453c-1.393,0-2.57-0.484-3.539-1.453
		C140.327,133.357,139.842,132.177,139.842,130.818z M157.42,124.396c-0.188,0.188-0.332,0.401-0.436,0.645
		c-0.104,0.244-0.15,0.492-0.15,0.75s0.047,0.508,0.141,0.75s0.242,0.465,0.445,0.668s0.426,0.354,0.668,0.445
		c0.242,0.094,0.492,0.141,0.75,0.141s0.508-0.051,0.75-0.15c0.242-0.101,0.457-0.246,0.645-0.436
		c0.391-0.404,0.586-0.879,0.586-1.418s-0.195-1.004-0.586-1.395c-0.391-0.392-0.855-0.586-1.395-0.586
		C158.297,123.811,157.827,124.005,157.42,124.396z"/>
</g>
</svg>
