<?xml version="1.0" encoding="utf-8"?>
<!-- Generator: Adobe Illustrator 15.0.2, SVG Export Plug-In . SVG Version: 6.00 Build 0)  -->
<!DOCTYPE svg PUBLIC "-//W3C//DTD SVG 1.1//EN" "http://www.w3.org/Graphics/SVG/1.1/DTD/svg11.dtd">
<svg version="1.1" id="pen" xmlns="http://www.w3.org/2000/svg" xmlns:xlink="http://www.w3.org/1999/xlink" x="0px" y="0px"
	 width="40.122px" height="40.127px" viewBox="122.945 107.637 40.122 40.127"
	 enable-background="new 122.945 107.637 40.122 40.127" xml:space="preserve">
<g opacity="0.7">
	<path fill="#FFFFFF" d="M122.945,147.764l5.672-16.945l15.68-15.75l1.453,1.406l-15.375,15.398l-0.844-0.867l-0.047,0.047
		c-0.266,0.75-0.539,1.521-0.82,2.309c-0.281,0.789-0.562,1.605-0.844,2.449c-0.281,0.844-0.523,1.586-0.727,2.227
		c-0.204,0.643-0.383,1.188-0.539,1.643l-0.445,1.357c0.625,0,1.375,0.438,2.25,1.312s1.312,1.625,1.312,2.25l9.982-3.375
		l0.049-0.047l-0.867-0.844l15.396-15.375l1.406,1.453l-15.75,15.68L122.945,147.764z M132.25,133.749l15.375-15.397l1.432,1.431
		l-15.396,15.352L132.25,133.749z M135.578,137.053l15.354-15.398l1.43,1.43l-15.396,15.375L135.578,137.053z M145.75,113.639
		l1.383-1.383l11.346,11.32l-1.406,1.383L145.75,113.639z M148.585,110.803l1.383-1.383c0.609-0.609,1.271-1.061,1.98-1.35
		c0.711-0.287,1.473-0.434,2.284-0.434c1.642,0,3.056,0.594,4.242,1.779l2.812,2.836c1.188,1.188,1.78,2.596,1.78,4.221
		c0,0.812-0.146,1.572-0.435,2.283c-0.288,0.713-0.737,1.371-1.348,1.98l-1.384,1.383L148.585,110.803z"/>
</g>
</svg>
