<?xml version="1.0" encoding="utf-8"?>
<svg version="1.0" id="tags" xmlns="http://www.w3.org/2000/svg" x="0px" y="0px"
	 width="37.734px" height="41.368px" viewBox="124.047 107.779 37.734 41.368"
	 enable-background="new 124.047 107.779 37.734 41.368" xml:space="preserve">
<g opacity="0.7">
	<path fill="#FFFFFF" d="M124.047,121.467v-11.672c0-0.547,0.191-1.021,0.574-1.418c0.383-0.398,0.848-0.599,1.396-0.599h11.672
		h0.094c0.266,0,0.492,0.095,0.68,0.281L161.5,131.1c0.188,0.188,0.281,0.43,0.281,0.727s-0.094,0.539-0.281,0.728l-12.772,12.772
		c-0.203,0.156-0.431,0.234-0.681,0.234c-0.327,0-0.569-0.117-0.727-0.352h-0.047l-22.992-23.039
		c-0.156-0.156-0.234-0.375-0.234-0.656V121.467z M125.336,125.357l18.258,21.306l-5.905,2.438
		c-0.125,0.031-0.242,0.047-0.353,0.047c-0.422,0-0.742-0.203-0.961-0.609v-0.047L125.336,125.357z M125.336,128.381l7.008,19.383
		h-6.047c-0.266,0-0.491-0.094-0.68-0.281c-0.188-0.188-0.281-0.43-0.281-0.727V128.381z M128.617,112.396
		c-0.188,0.188-0.332,0.401-0.434,0.646c-0.103,0.242-0.152,0.492-0.152,0.75s0.047,0.508,0.141,0.75
		c0.095,0.242,0.242,0.465,0.445,0.668s0.426,0.352,0.668,0.444s0.492,0.142,0.75,0.142s0.508-0.051,0.75-0.152
		s0.457-0.246,0.646-0.434c0.391-0.406,0.586-0.879,0.586-1.418s-0.195-1.004-0.586-1.396c-0.392-0.392-0.855-0.586-1.396-0.586
		S129.023,112.006,128.617,112.396z"/>
</g>
</svg>
